<svg width="26" height="26" viewBox="0 0 26 26" fill="none" xmlns="http://www.w3.org/2000/svg">
<path fill-rule="evenodd" clip-rule="evenodd" d="M8.47051 2.06501C9.5694 0.801241 11.1911 0 13 0C14.8088 0 16.4304 0.801162 17.5293 2.06482C19.2001 1.94808 20.9136 2.52821 22.1928 3.80743C23.472 5.08664 24.0522 6.80012 23.9355 8.47092C25.199 9.56981 26 11.1913 26 13C26 14.809 25.1987 16.4308 23.9348 17.5297C24.0512 19.2002 23.4711 20.9133 22.1921 22.1923C20.9131 23.4713 19.2 24.0515 17.5294 23.935C16.4306 25.1988 14.8089 26 13 26C11.1912 26 9.5696 25.1989 8.47071 23.9352C6.79989 24.052 5.08639 23.4718 3.80716 22.1926C2.52794 20.9134 1.94781 19.1999 2.06455 17.5291C0.801047 16.4302 0 14.8087 0 13C0 11.1912 0.801128 9.56963 2.06474 8.47074C1.94813 6.80007 2.52828 5.08676 3.80739 3.80765C5.0865 2.52853 6.79982 1.94839 8.47051 2.06501ZM17.8137 10.5812C18.1347 10.1318 18.0307 9.50728 17.5812 9.18627C17.1318 8.86526 16.5073 8.96935 16.1863 9.41876L11.8724 15.4582L9.70711 13.2929C9.31658 12.9024 8.68342 12.9024 8.29289 13.2929C7.90237 13.6834 7.90237 14.3166 8.29289 14.7071L11.2929 17.7071C11.5007 17.915 11.7895 18.0208 12.0825 17.9966C12.3754 17.9723 12.6429 17.8204 12.8137 17.5812L17.8137 10.5812Z" fill="#FBFF33"/>
</svg>
